<svg xmlns="http://www.w3.org/2000/svg" viewBox="0 0 300 300" fill="none" stroke="#ffffff" stroke-width="1.6" stroke-linecap="round" stroke-linejoin="round"><path d="M0 9 Q36 2 74 10 Q118 17 160 8 Q206 0 252 8 Q278 12 300 7"/><path d="M3.0 9.2 C6.1 47.8 9.5 91.0 11.5 95.0 C13.6 91.0 17.0 47.8 20.1 9.2"/><path d="M29.5 11.1 C32.6 44.9 36.1 82.3 38.1 86.3 C40.2 82.3 43.6 44.9 46.7 11.1"/><path d="M38.1 93.3 q-2.2 3.4 0 5.2 q2.2 -1.8 0 -5.2"/><path d="M53.8 12.0 C56.5 43.2 59.4 77.3 61.2 81.3 C62.9 77.3 65.9 43.2 68.5 12.0"/><path d="M75.9 11.7 C79.5 29.9 83.6 48.1 86.0 52.1 C88.4 48.1 92.4 29.9 96.1 11.7"/><path d="M101.2 10.4 C103.7 42.9 106.4 78.6 108.1 82.6 C109.7 78.6 112.5 42.9 115.0 10.4"/><path d="M122.8 8.7 C125.3 41.4 127.9 77.4 129.5 81.4 C131.1 77.4 133.8 41.4 136.2 8.7"/><path d="M129.5 88.4 q-2.2 3.4 0 5.2 q2.2 -1.8 0 -5.2"/><path d="M146.0 7.1 C149.4 29.6 153.2 53.2 155.4 57.2 C157.7 53.2 161.5 29.6 164.9 7.1"/><path d="M169.0 6.1 C171.3 24.5 174.0 43.1 175.5 47.1 C177.1 43.1 179.7 24.5 182.1 6.1"/><path d="M185.5 6.0 C188.2 19.0 191.1 30.9 192.9 34.9 C194.6 30.9 197.6 19.0 200.2 6.0"/><path d="M203.4 6.6 C206.5 20.2 210.0 32.7 212.0 36.7 C214.1 32.7 217.5 20.2 220.6 6.6"/><path d="M229.5 8.3 C232.7 20.5 236.2 31.5 238.3 35.5 C240.5 31.5 244.0 20.5 247.2 8.3"/><path d="M253.7 10.1 C257.1 19.3 260.9 26.5 263.2 30.5 C265.4 26.5 269.2 19.3 272.6 10.1"/><path d="M277.6 11.6 C281.5 23.5 285.9 34.0 288.6 38.0 C291.2 34.0 295.6 23.5 299.6 11.6"/><path d="M46.0 168.0 L58.6 171.4"/><path d="M52.9 169.9 L56.7 168.1"/><path d="M52.9 169.9 L55.3 173.3"/><path d="M46.0 168.0 L49.4 180.6"/><path d="M47.9 174.9 L51.3 177.3"/><path d="M47.9 174.9 L46.1 178.7"/><path d="M46.0 168.0 L36.8 177.2"/><path d="M40.9 173.1 L40.6 177.2"/><path d="M40.9 173.1 L36.8 173.4"/><path d="M46.0 168.0 L33.4 164.6"/><path d="M39.1 166.1 L35.3 167.9"/><path d="M39.1 166.1 L36.7 162.7"/><path d="M46.0 168.0 L42.6 155.4"/><path d="M44.1 161.1 L40.7 158.7"/><path d="M44.1 161.1 L45.9 157.3"/><path d="M46.0 168.0 L55.2 158.8"/><path d="M51.1 162.9 L51.4 158.8"/><path d="M51.1 162.9 L55.2 162.6"/><path d="M128.0 112.0 L136.7 114.3"/><path d="M132.8 113.3 L135.4 112.1"/><path d="M132.8 113.3 L134.4 115.6"/><path d="M128.0 112.0 L130.3 120.7"/><path d="M129.3 116.8 L131.6 118.4"/><path d="M129.3 116.8 L128.1 119.4"/><path d="M128.0 112.0 L121.6 118.4"/><path d="M124.5 115.5 L124.2 118.4"/><path d="M124.5 115.5 L121.6 115.8"/><path d="M128.0 112.0 L119.3 109.7"/><path d="M123.2 110.7 L120.6 111.9"/><path d="M123.2 110.7 L121.6 108.4"/><path d="M128.0 112.0 L125.7 103.3"/><path d="M126.7 107.2 L124.4 105.6"/><path d="M126.7 107.2 L127.9 104.6"/><path d="M128.0 112.0 L134.4 105.6"/><path d="M131.5 108.5 L131.8 105.6"/><path d="M131.5 108.5 L134.4 108.2"/><path d="M92.0 236.0 L99.7 238.1"/><path d="M96.3 237.1 L98.6 236.1"/><path d="M96.3 237.1 L97.7 239.2"/><path d="M92.0 236.0 L94.1 243.7"/><path d="M93.1 240.3 L95.2 241.7"/><path d="M93.1 240.3 L92.1 242.6"/><path d="M92.0 236.0 L86.3 241.7"/><path d="M88.9 239.1 L88.7 241.7"/><path d="M88.9 239.1 L86.3 239.3"/><path d="M92.0 236.0 L84.3 233.9"/><path d="M87.7 234.9 L85.4 235.9"/><path d="M87.7 234.9 L86.3 232.8"/><path d="M92.0 236.0 L89.9 228.3"/><path d="M90.9 231.7 L88.8 230.3"/><path d="M90.9 231.7 L91.9 229.4"/><path d="M92.0 236.0 L97.7 230.3"/><path d="M95.1 232.9 L95.3 230.3"/><path d="M95.1 232.9 L97.7 232.7"/><path d="M196.0 78.0 L202.8 79.8"/><path d="M199.7 79.0 L201.7 78.0"/><path d="M199.7 79.0 L201.0 80.8"/><path d="M196.0 78.0 L197.8 84.8"/><path d="M197.0 81.7 L198.8 83.0"/><path d="M197.0 81.7 L196.0 83.7"/><path d="M196.0 78.0 L191.1 82.9"/><path d="M193.3 80.7 L193.1 83.0"/><path d="M193.3 80.7 L191.0 80.9"/><path d="M196.0 78.0 L189.2 76.2"/><path d="M192.3 77.0 L190.3 78.0"/><path d="M192.3 77.0 L191.0 75.2"/><path d="M196.0 78.0 L194.2 71.2"/><path d="M195.0 74.3 L193.2 73.0"/><path d="M195.0 74.3 L196.0 72.3"/><path d="M196.0 78.0 L200.9 73.1"/><path d="M198.7 75.3 L198.9 73.0"/><path d="M198.7 75.3 L201.0 75.1"/><path d="M24.0 120.0 L29.8 121.6"/><path d="M27.2 120.9 L28.9 120.0"/><path d="M27.2 120.9 L28.3 122.4"/><path d="M24.0 120.0 L25.6 125.8"/><path d="M24.9 123.2 L26.4 124.3"/><path d="M24.9 123.2 L24.0 124.9"/><path d="M24.0 120.0 L19.8 124.2"/><path d="M21.7 122.3 L21.5 124.2"/><path d="M21.7 122.3 L19.8 122.5"/><path d="M24.0 120.0 L18.2 118.4"/><path d="M20.8 119.1 L19.1 120.0"/><path d="M20.8 119.1 L19.7 117.6"/><path d="M24.0 120.0 L22.4 114.2"/><path d="M23.1 116.8 L21.6 115.7"/><path d="M23.1 116.8 L24.0 115.1"/><path d="M24.0 120.0 L28.2 115.8"/><path d="M26.3 117.7 L26.5 115.8"/><path d="M26.3 117.7 L28.2 117.5"/></svg>
